<svg id="visual" viewBox="0 0 900 600" width="900" height="600" xmlns="http://www.w3.org/2000/svg" xmlns:xlink="http://www.w3.org/1999/xlink" version="1.1"><rect x="0" y="0" width="900" height="600" fill="#F2F2F2"></rect><path d="M431 0L427.5 20C424 40 417 80 396.2 120C375.3 160 340.7 200 330 240C319.3 280 332.7 320 340 360C347.3 400 348.7 440 344 480C339.3 520 328.7 560 323.3 580L318 600L0 600L0 580C0 560 0 520 0 480C0 440 0 400 0 360C0 320 0 280 0 240C0 200 0 160 0 120C0 80 0 40 0 20L0 0Z" fill="#000000" stroke-linecap="round" stroke-linejoin="miter"></path></svg>